<?xml version="1.0" encoding="utf-8"?>
<!-- Generator: Adobe Illustrator 16.0.0, SVG Export Plug-In . SVG Version: 6.00 Build 0)  -->
<!DOCTYPE svg PUBLIC "-//W3C//DTD SVG 1.1//EN" "http://www.w3.org/Graphics/SVG/1.1/DTD/svg11.dtd">
<svg version="1.1" id="レイヤー_1" xmlns="http://www.w3.org/2000/svg" xmlns:xlink="http://www.w3.org/1999/xlink" x="0px"
	 y="0px" width="425.197px" height="283.464px" viewBox="0 0 425.197 283.464" enable-background="new 0 0 425.197 283.464"
	 xml:space="preserve">
<g>
	<path fill="#FFFFFF" stroke="#000000" stroke-width="0.25" stroke-miterlimit="10" d="M295.969,191.097c0,0,24.6,2.363,24.6,20.631
		c0,15.176-11.359,14.475-12.301,14.475c-0.943,0-11.406-0.574-11.406-11.383c0-5.352,2.924-8.115,4.799-11.027
		c0.977-1.52,2.137-4.658,1.889-6.576C303.18,194.367,300.872,192.324,295.969,191.097z"/>
	<path fill="#FFFFFF" stroke="#000000" stroke-width="0.25" stroke-miterlimit="10" d="M293.762,17.689
		c0,0-44.021,7.284-44.021,53.041c0,45.758,29.416,45.29,31.75,45.29s27.547-0.214,27.547-27.081
		c0-16.342-9.922-23.695-16.342-28.482c-5.822-4.34-16.342-10.271-16.809-22.877C275.42,24.973,289.135,18.279,293.762,17.689z"/>
	<path opacity="0.99" fill="#FFFFFF" stroke="#000000" stroke-width="0.25" stroke-miterlimit="10" d="M294.086,17.612
		c0,0,11.912-3.18,24.416,9.325c4.664,4.663,6.512,10.76,7.148,14.667c0.639,3.909,2.875,17.334,2.408,29.24
		c-0.279,7.134,0.295,20.254-3.555,30.992c-2.572,7.184-8.223,12.997-13.371,16.366c-12.84,8.405-23.373,12.704-27.312,14.942
		s-16.525,10.03-20.379,15.311c3.729-4.989,16.439-11.876,25.197-13.334c6.18-1.3,13.508-1.554,22.365-2.137
		c10.289-0.677,20.346-1.804,26.744-3.812c11.904-3.734,49.957-9.272,49.957-56.898c0-26.613-25.51-42.093-30.23-44.809
		C348.137,22.095,327.766,11.251,294.086,17.612z"/>
	<path fill="#FFFFFF" stroke="#000000" stroke-width="0.25" stroke-miterlimit="10" d="M275.674,200.277
		c-0.674-0.289-2.25-0.885-2.416-0.951c-6.262-2.924-17.328-11.646-17.582-24.021c-0.275-13.615,3.566-21.93,7.766-26.849
		c0,0-13.34,14.339-12.359,40.878c0.986,26.541,16.328,36.023,23.164,36.621c6.836,0.6,12.09-3.682,12.848-11.379
		C287.819,207.189,281.204,202.339,275.674,200.277z"/>
	<path fill="#FFFFFF" stroke="#000000" stroke-width="0.25" stroke-miterlimit="10" d="M328.344,191.097
		c0,0,24.602,2.365,24.602,20.633c0,15.174-11.361,14.475-12.303,14.475c-0.943,0-11.406-0.574-11.406-11.383
		c0-5.354,2.926-8.115,4.799-11.029c0.977-1.518,1.867-3.902,1.867-5.836C335.903,195.548,333.247,192.324,328.344,191.097z"/>
	<path fill="#FFFFFF" stroke="#000000" stroke-width="0.25" stroke-miterlimit="10" d="M361.137,190.941c0,0,24.6,2.363,24.6,20.631
		c0,15.176-11.359,14.475-12.301,14.475c-0.943,0-11.406-0.572-11.406-11.383c0-5.352,2.924-8.115,4.799-11.027
		c0.977-1.52,1.867-3.902,1.867-5.838C368.696,195.392,366.04,192.167,361.137,190.941z"/>
	<path fill="#FFFFFF" stroke="#000000" stroke-width="0.25" stroke-miterlimit="10" d="M144.791,224.103
		c0,0-31.822-3.057-31.822-26.688c0-19.629,14.695-18.723,15.912-18.723c1.219,0,14.754,0.742,14.754,14.725
		c0,6.922-3.781,10.496-6.207,14.264c-1.262,1.965-2.414,5.051-2.414,7.551C135.013,218.345,138.447,222.517,144.791,224.103z"/>
	<path fill="#FFFFFF" stroke="#000000" stroke-width="0.25" stroke-miterlimit="10" d="M173.011,158.56
		c0.586,0.746,1.998,2.404,2.146,2.584c5.273,7.219,12.379,24.002,4.951,38.186c-8.176,15.605-17.109,22.135-24.938,25.09
		c0,0,23.457-7.434,38.889-38.127c15.43-30.695,3.953-51.011-3.422-55.949c-7.375-4.942-16-3.364-21.656,4.888
		C163.556,143.151,168.031,152.774,173.011,158.56z"/>
	<path fill="#FFFFFF" stroke="#000000" stroke-width="0.25" stroke-miterlimit="10" d="M143.783,179.189
		c0,0,9.031-0.867,9.031-7.574c0-5.572-4.17-5.314-4.516-5.314s-4.188,0.211-4.188,4.18c0,1.965,1.074,2.979,1.762,4.047
		c0.357,0.559,0.686,1.434,0.686,2.145C146.558,177.554,145.583,178.738,143.783,179.189z"/>
	<path fill="#FFFFFF" stroke="#000000" stroke-width="0.25" stroke-miterlimit="10" d="M65.242,175.185
		c0,0,31.82,3.059,31.82,26.689c0,19.627-14.695,18.723-15.912,18.723c-1.221,0-14.754-0.742-14.754-14.725
		c0-6.922,3.783-10.496,6.207-14.266c1.264-1.965,2.414-5.049,2.414-7.551C75.017,180.943,71.583,176.773,65.242,175.185z"/>
	<path fill="#FFFFFF" stroke="#000000" stroke-width="0.25" stroke-miterlimit="10" d="M65.539,175.185
		c0,0-31.826-3.006-31.863-26.638c-0.033-19.629,14.666-18.748,15.883-18.75c1.219-0.002,14.754,0.719,14.775,14.701
		c0.012,6.924-3.764,10.505-6.182,14.276c-1.26,1.969-2.408,5.055-2.404,7.555C55.751,169.445,59.193,173.609,65.539,175.185z"/>
	<g>
		<path fill="#FFFFFF" d="M248.543,221.72c0,0.86-1.275,1.564-2.835,1.564H201.33c-1.559,0-2.834-0.704-2.834-1.564
			s1.275-1.564,2.834-1.564h44.378C247.268,220.156,248.543,220.86,248.543,221.72z"/>
		<path fill="none" stroke="#000000" stroke-width="0.25" stroke-miterlimit="10" d="M248.543,221.72
			c0,0.86-1.275,1.564-2.835,1.564H201.33c-1.559,0-2.834-0.704-2.834-1.564s1.275-1.564,2.834-1.564h44.378
			C247.268,220.156,248.543,220.86,248.543,221.72z"/>
	</g>
</g>
<g>
	<path fill="#FFFFFF" stroke="#000000" stroke-width="0.25" stroke-miterlimit="10" d="M93.697,249.648
		c0.02-0.045,0.062-0.086,0.125-0.086c0.064,0,0.127,0.041,0.168,0.086l0.826,0.93c0.041,0.021,0.064,0.062,0.064,0.105
		c0,0.105-0.043,0.105-0.572,0.191c-0.422,0.062-0.465,0.082-0.781,0.379c-3.275,3.174-7.133,6.402-12.709,8.889l-0.084-0.295
		c2.604-1.059,4.676-2.398,6.816-4.1c0.955-0.758-1.938-3.498-2.232-3.814l0.168-0.211c0.361,0.211,1.84,1.162,2.305,1.564
		c0.17,0.146,0.17,0.273,0.17,0.338c0,0.105,0.219,1.709-0.057,1.912c2.148-1.588,3.418-2.863,4.9-4.643h-6.979
		c-1.312,1.609-2.666,2.984-4.232,4.211l-0.17-0.232c2.434-2.412,5.162-5.818,5.162-7.066v-0.297l0.148-0.084l1.271,1.355
		l-0.045,0.127c-0.549,0-0.676,0.146-1.713,1.459h6.855L93.697,249.648z M94.775,257.496c0.021-0.041,0.082-0.062,0.148-0.062
		c0.062,0,0.125,0.043,0.17,0.062l1.057,0.889c0.062,0.064,0.105,0.107,0.105,0.17c0,0.127-0.635,0.254-0.803,0.316
		c-0.277,0.129-1.525,1.758-1.82,2.074c-2.666,3.047-7.301,5.818-13.287,6.834l-0.064-0.338c5.545-1.291,10.854-3.957,13.879-8.781
		h-7.561c-1.762,1.143-2.656,1.785-4.562,2.949l-0.125-0.256c3.6-2.615,7.525-4.895,7.525-5.654c0-0.084-0.043-0.191-0.064-0.299
		l0.148-0.104l1.566,1.312l-0.021,0.125c-0.488,0-0.902-0.127-1.094-0.021c-0.105,0.062-2.314,0.975-2.779,1.418h7.051
		L94.775,257.496z M86.861,259.55c0.508,0.422,2.498,2.242,2.498,2.516c0,0.234-0.424,1.355-0.572,1.355
		c-0.043,0-0.064-0.043-0.232-0.424c-0.465-1.143-1.1-2.072-1.902-3.238L86.861,259.55z"/>
	<path fill="#FFFFFF" stroke="#000000" stroke-width="0.25" stroke-miterlimit="10" d="M114.226,254.048
		c-0.971,1.375-2.748,2.834-3.934,3.809l-0.211-0.254c1.291-1.164,2.625-2.584,3.553-4c-0.762,0.021-1.057,0.041-1.523,0.148
		l-0.57-0.697h2.686v-0.531c0-0.59-0.02-1.016-0.252-1.521h-6.051l1.078,0.656v0.105c-0.443,0.338-0.465,0.633-0.465,1.311h1.078
		l0.467-0.551c0.127-0.168,0.148-0.189,0.211-0.189c0.084,0,0.17,0.062,0.275,0.17l0.76,0.719c0.107,0.105,0.213,0.191,0.213,0.275
		c0,0.105-0.127,0.105-0.318,0.105h-2.686v0.826c0.656,0.316,1.818,0.867,1.926,0.971c0.189,0.215,0.189,0.723,0.189,0.891
		c0,0.273-0.062,0.402-0.148,0.402c-0.084,0-0.592-0.613-0.719-0.74c-0.508-0.508-0.951-0.826-1.248-1.059v0.721
		c0,1.543,0,2.623-0.232,2.623c-0.148,0-0.678-1.396-0.805-1.674c0.275-0.465,0.359-0.801,0.359-1.627v-0.719
		c-1.945,2.58-3.215,3.639-3.725,3.998l-0.23-0.254c1.65-1.629,3.004-3.471,3.49-4.359c-1.461,0-1.84,0.086-2.264,0.168
		l-0.549-0.697h3.277v-0.551c0-0.611,0-0.994-0.252-1.521h-3.725v2.158c0,4.549-0.148,9.352-3.342,13.562l-0.275-0.168
		c2.432-4.127,2.75-7.428,2.75-13.605c0-1.885,0-2.709-0.529-3.557l0.295-0.211l1.248,1.291h6.771v-1.229
		c0-1.121-0.211-1.418-0.338-1.586l0.146-0.211l1.545,0.74v0.086c-0.381,0.273-0.527,0.57-0.527,1.268v0.932h6.326l0.697-0.805
		c0.146-0.189,0.17-0.189,0.211-0.189c0.084,0,0.234,0.104,0.295,0.17l1.059,0.971c0.129,0.107,0.234,0.213,0.234,0.256
		c0,0.127-0.17,0.127-0.34,0.127h-5.818l1.08,0.676v0.086c-0.465,0.338-0.488,0.633-0.465,1.291h2.051l0.445-0.551
		c0.105-0.127,0.146-0.191,0.232-0.191c0.084,0,0.211,0.129,0.273,0.191l0.764,0.697c0.105,0.107,0.211,0.191,0.211,0.277
		c0,0.104-0.148,0.104-0.338,0.104h-3.047c0.803,1.523,2.221,2.857,4.336,3.598l-0.02,0.211c-0.953-0.041-1.377,0.15-1.609,0.297
		c-1.777-1.734-2.326-2.287-3.193-4.105h-0.105v2.033c0,1.607-0.023,1.775-0.105,2.283c0.781-0.189,0.887-0.316,1.078-0.697
		l0.146-0.043l1.229,1.396l-0.105,0.127c-0.213-0.041-0.34-0.084-0.826-0.084c-0.213,0-3.701,0.338-4.211,0.381
		c0,0.232,0.021,1.312,0.021,1.521h3.598l0.592-0.719c0.148-0.189,0.189-0.189,0.232-0.189c0.084,0,0.211,0.129,0.275,0.189
		l0.973,0.867c0.127,0.107,0.211,0.213,0.211,0.256c0,0.125-0.168,0.125-0.338,0.125h-5.543v1.545h5.311l0.613-0.74
		c0.148-0.189,0.17-0.189,0.213-0.189c0.084,0,0.232,0.148,0.275,0.189l0.973,0.867c0.125,0.127,0.213,0.213,0.213,0.256
		c0,0.146-0.172,0.146-0.34,0.146h-7.258c0.021,2.285,0.021,2.539,0,2.855c-0.064,0.699-0.889,1.439-0.951,1.439
		c-0.107,0-0.318-0.527-0.381-0.613c-0.402-0.57-1.84-1.248-2.771-1.693l0.148-0.381c0.867,0.34,2.475,0.932,2.812,0.932
		c0.297,0,0.297-0.316,0.297-0.826v-1.713h-4.973c-1.27,0-1.732,0.086-2.01,0.17l-0.57-0.699h7.553v-1.545h-3.701
		c-0.678,0-1.418,0.045-2.031,0.17l-0.551-0.699h6.283v-1.459c-1.291,0.105-2.18,0.148-6.156,0.297l-0.02-0.338
		c7.043-0.551,8.25-0.805,9.35-1.016c-0.105-0.213-0.51-1.207-0.594-1.42c0.254-0.465,0.359-0.801,0.359-1.627V254.048z"/>
	<path fill="#FFFFFF" stroke="#000000" stroke-width="0.25" stroke-miterlimit="10" d="M143.474,265.515
		c-0.846,0.086-1.354,0.488-1.693,0.889c-1.586-0.4-5.668-1.416-7.912-5.309h-0.338c-1.207,2.496-4.357,5.352-9.141,6.07
		l-0.041-0.252c2.707-0.848,6.432-2.266,8.23-5.818h-4.443c-1.207,0-1.693,0.104-2.01,0.168l-0.551-0.697h7.236
		c0.254-0.572,0.486-1.398,0.486-2.285c0-0.256-0.023-0.383-0.023-0.467h-6.6c-1.227,0-1.691,0.084-2.008,0.17l-0.551-0.699h9.182
		v-2.477h-4.656c-1.227,0-1.713,0.107-2.008,0.172l-0.551-0.699h7.215v-2.139h-5.545c-1.268,0-1.734,0.107-2.008,0.17l-0.551-0.697
		h6.666c-0.891-1.121-1.906-2.158-3.006-3.068l0.146-0.254c1.123,0.635,2.16,1.248,2.773,1.65c0.316,0.213,0.443,0.34,0.443,0.824
		c0,0.234-0.021,0.637-0.127,0.848h2.688c0.889-1.207,2.137-2.877,2.137-3.957l0.148-0.086l1.332,1.271l-0.107,0.105
		c-0.316,0-0.527,0.043-0.801,0.295c-0.297,0.275-1.438,1.566-2.137,2.371h4.271l0.699-0.826c0.084-0.084,0.148-0.189,0.211-0.189
		c0.064,0,0.17,0.064,0.297,0.168l1.162,0.975c0.129,0.105,0.234,0.191,0.234,0.254c0,0.146-0.168,0.146-0.338,0.146h-7.766v2.139
		h4.717l0.699-0.826c0.064-0.084,0.148-0.189,0.213-0.189c0.082,0,0.168,0.062,0.295,0.168l1.164,0.996
		c0.062,0.062,0.232,0.17,0.232,0.232c0,0.146-0.148,0.146-0.338,0.146h-6.982v2.477h6.75l0.678-0.781
		c0.062-0.086,0.146-0.191,0.211-0.191c0.062,0,0.23,0.127,0.297,0.191l1.141,0.908c0.107,0.084,0.234,0.17,0.234,0.254
		c0,0.148-0.17,0.148-0.34,0.148h-9.562l1.334,0.91l-0.023,0.064c-0.295,0.082-0.465,0.189-0.613,0.422
		c-0.105,0.189-0.379,1.164-0.465,1.355h5.859l0.68-0.807c0.061-0.084,0.168-0.189,0.23-0.189c0.064,0,0.17,0.086,0.275,0.17
		l1.184,0.973c0.086,0.086,0.234,0.191,0.234,0.254c0,0.129-0.168,0.129-0.338,0.129h-7.512c2.414,3.553,6.707,4.146,9.076,4.125
		L143.474,265.515z"/>
	<path fill="#FFFFFF" stroke="#000000" stroke-width="0.25" stroke-miterlimit="10" d="M157.115,251.636
		c0.783,0.402,0.848,0.445,1.059,0.637c0.297,0.252,0.594,0.697,0.594,0.844c0,0.127-0.256,0.572-0.297,0.656
		c-0.17,0.445-0.68,2.496-0.805,2.9c-0.318,1.1-0.973,3.322-2.262,4.676c-0.299,0.316-1.25,1.248-2.33,1.248
		c-1.543,0-2.391-1.672-2.391-3.514c0-4.443,3.809-8.504,8.633-8.504c4.359,0,6.729,3.301,6.729,6.812
		c0,3.617-2.455,6.855-8.188,7.977l-0.191-0.297c4.908-1.311,7.32-4.4,7.32-7.828c0-3.025-1.84-6.094-5.797-6.094
		c-4.465,0-7.615,4.105-7.615,8.041c0,1.629,0.676,2.645,1.566,2.645c0.379,0,2.008-0.359,3.32-3.979
		c0.762-2.137,1.1-4.379,1.1-4.781c0-0.592-0.254-0.848-0.529-1.143c-0.086-0.105-0.127-0.148-0.168-0.211L157.115,251.636z"/>
	<path fill="#FFFFFF" stroke="#000000" stroke-width="0.25" stroke-miterlimit="10" d="M174.304,253.181
		c1.818,1.1,3.404,2.094,5.119,3.428c0.783-1.439,2.156-4.551,2.156-5.27c0-0.592-0.57-1.016-0.908-1.248l0.275-0.213
		c1.373,0.381,2.285,1.145,2.285,1.439c0,0.127-0.148,0.234-0.254,0.318c-0.316,0.211-0.361,0.252-0.443,0.402
		c-0.764,1.861-1.484,3.531-2.414,5.119c0.635,0.551,1.166,0.973,2.283,2.01c0.615,0.572,0.828,0.699,1.059,0.699
		c0.086,0,0.129-0.02,0.447-0.17l-0.699,2.01c-0.996-1.227-1.545-1.904-3.533-3.785c-1.334,2.178-3.746,5.541-7.299,7.488
		l-0.254-0.232c2.77-2.074,4.76-4.359,6.875-7.85c-1.564-1.354-3.215-2.646-4.93-3.809L174.304,253.181z"/>
	<path fill="#FFFFFF" stroke="#000000" stroke-width="0.25" stroke-miterlimit="10" d="M192.353,256.08
		c-0.887,0-1.143,0.062-1.629,0.189l-0.443-0.973c0.338,0.084,0.973,0.273,2.242,0.273h10.535l0.783-1.162l1.564,1.377l-0.338,0.295
		h-7.023c0.127,0.062,0.697,0.402,0.783,0.443c0.064,0.041,0.104,0.086,0.104,0.17s-0.084,0.148-0.463,0.402
		c-0.15,4.443-1.375,7.004-5.924,8.652l-0.17-0.316c2.836-1.311,5.479-3.109,5.119-9.352H192.353z M192.207,251.128
		c0.443,0.125,0.951,0.295,2.242,0.295h5.838l0.783-1.184l1.545,1.396l-0.318,0.275h-8.018c-0.508,0-0.91,0-1.629,0.189
		L192.207,251.128z M204.455,253.878c-0.254-0.762-0.697-2.156-1.756-3.871l0.445-0.129c1.119,1.482,1.396,2.033,1.945,3.154
		L204.455,253.878z M206.337,253.033c-0.338-0.826-0.826-1.969-1.84-3.344l0.379-0.127c1.059,1.143,1.398,1.566,2.074,2.688
		L206.337,253.033z"/>
	<path fill="#FFFFFF" stroke="#000000" stroke-width="0.25" stroke-miterlimit="10" d="M213.831,264.248
		c0.211-0.211,0.359-0.381,0.424-1.375c0-0.172,0.086-3.727,0.021-5.143c-2.855,2.326-4.315,3.068-5.69,3.766l-0.232-0.316
		c1.881-1.08,4.589-3.176,6.155-4.74c0.719-0.699,2.391-2.561,2.391-3.09c0-0.168-0.191-0.254-0.551-0.465l0.359-0.275
		c1.334,0.424,1.82,1.143,1.82,1.27s-0.084,0.189-0.211,0.232s-0.381,0.086-0.551,0.107c-1.27,1.502-2.496,2.623-2.75,2.834
		l0.549,0.381c-0.211,0.148-0.338,0.211-0.4,0.613c-0.064,0.361-0.064,4-0.064,4.867c0,1.037,0,1.48,0.086,2.117l-0.402,0.484
		L213.831,264.248z"/>
	<path fill="#FFFFFF" stroke="#000000" stroke-width="0.25" stroke-miterlimit="10" d="M226.209,251.763
		c-0.529,0-0.973,0.02-1.629,0.211l-0.445-0.994c0.402,0.127,1.037,0.297,2.244,0.297h9.414l0.656-0.719l1.629,1.5
		c-0.551,0.17-1.016,0.275-1.143,0.297c-1.691,1.48-2.582,2.264-4.465,3.238l-0.146-0.275c0.719-0.51,2.072-1.482,3.533-3.555
		H226.209z M229.467,254.197c0.824,0.021,2.244,0.443,2.244,0.846c0,0.189-0.172,0.381-0.318,0.527
		c-0.656,5.947-2.074,7.703-4.252,9.756l-0.234-0.318c0.488-0.508,1.27-1.355,2.074-3.215c0.781-1.777,1.375-4.316,1.375-6.199
		c0-0.785-0.148-0.826-1.164-1.145L229.467,254.197z"/>
	<path fill="#FFFFFF" stroke="#000000" stroke-width="0.25" stroke-miterlimit="10" d="M246.422,259.4
		c-1.291,0-1.736,0.105-2.031,0.17l-0.549-0.699h16.883l0.695-0.824c0.064-0.084,0.172-0.189,0.234-0.189
		c0.043,0,0.127,0.084,0.273,0.189l1.186,0.975c0.191,0.168,0.213,0.189,0.213,0.254c0,0.125-0.17,0.125-0.34,0.125h-10.324
		l0.975,0.93l-0.086,0.107c-0.254,0.021-0.74,0.043-1.291,0.678c-0.951,1.123-2.455,2.941-3.404,4.062
		c5.879-0.338,6.514-0.361,9.965-0.592c-0.488-0.51-1.799-1.82-3.979-3.557l0.211-0.316c1.861,1.143,4.613,3.258,5.672,4.168
		c0.484,0.402,0.549,0.656,0.549,1.143c0,0.17-0.02,1.08-0.213,1.08c-0.104,0-0.443-0.445-0.57-0.613
		c-0.508-0.678-0.951-1.143-1.27-1.482l-9.201,0.826c-0.318,0.021-2.562,0.232-3.471,0.633l-1.27-1.141
		c0.17,0,2.58-0.105,2.896-0.105c1.164-1.523,3.809-4.994,4.021-5.82H246.422z M247.417,251.552c-1.268,0-1.736,0.125-2.01,0.17
		l-0.551-0.68h5.5c0-1.334-0.021-2.496-0.422-3.217l0.232-0.189l1.672,1.186v0.062c-0.551,0.359-0.594,0.635-0.594,1.398v0.76h4.338
		c0-1.713,0-2.582-0.34-3.236l0.277-0.191l1.586,1.229v0.064c-0.508,0.316-0.656,0.527-0.656,1.375v0.76h3.555l0.697-0.824
		c0.148-0.17,0.168-0.189,0.213-0.189c0.062,0,0.105,0,0.295,0.168l1.186,0.973c0.191,0.17,0.211,0.191,0.211,0.254
		c0,0.129-0.17,0.129-0.338,0.129h-5.818c0,0.781,0,3.256-0.34,3.256c-0.125,0-0.211-0.168-1.014-1.84
		c0.338-0.381,0.486-0.613,0.486-1.416h-4.338c-0.02,3.256-0.127,3.256-0.295,3.256c-0.086,0-0.211-0.209-0.359-0.465
		c-0.107-0.168-0.551-0.973-0.656-1.143c0.4-0.508,0.4-0.613,0.422-1.648H247.417z M245.893,255.337H258.1l0.678-0.824
		c0.104-0.127,0.17-0.191,0.232-0.191s0.105,0.021,0.297,0.191l1.162,0.973c0.191,0.17,0.211,0.191,0.211,0.254
		c0,0.129-0.168,0.129-0.338,0.129h-11.867c-1.248,0-1.693,0.105-2.031,0.168L245.893,255.337z"/>
	<path fill="#FFFFFF" stroke="#000000" stroke-width="0.25" stroke-miterlimit="10" d="M273.725,253.541h-0.234
		c-0.211,0-0.318,0.02-0.465,0.17c-0.234,0.211-1.184,1.354-1.418,1.627v8.844c0,0.721,0,2.055-0.064,2.689
		c-0.041,0.422-0.062,0.57-0.189,0.57c-0.232,0-0.932-1.926-1.078-2.35c0.422-0.443,0.549-0.781,0.549-1.564v-7.322
		c-1.924,2.076-2.814,2.795-3.703,3.516l-0.211-0.32c3.744-3.637,5.078-5.84,5.332-6.389c0.168-0.402,0.146-0.678,0.127-0.91
		l0.146-0.084l1.27,1.396L273.725,253.541z M273.639,249.414l-0.043,0.127c-0.656,0.021-0.74,0.021-1.08,0.381
		c-2.643,2.898-4.082,4.02-4.633,4.465l-0.191-0.254c1.82-1.736,4.084-4.338,4.467-5.375c0.084-0.232,0.104-0.465,0.041-0.676
		l0.189-0.086L273.639,249.414z M276.325,255.888l-0.041,0.148c-0.443,0.127-0.594,0.275-0.762,0.805
		c-1.482,4.697-2.412,6.326-2.9,7.195l-0.295-0.107c1.438-3.281,2.52-7.385,2.52-8.422c0-0.232-0.023-0.549-0.086-0.762l0.211-0.127
		L276.325,255.888z M279.055,252.99l0.529-0.697c0.084-0.107,0.125-0.17,0.211-0.17c0.084,0,0.127,0.043,0.211,0.105l1.057,0.953
		c0.064,0.062,0.129,0.105,0.129,0.189c0,0.148-0.17,0.148-0.254,0.148h-3.512v9.67c0,0.654,0,3.301-0.275,3.301
		c-0.254,0-0.975-2.01-1.121-2.453c0.443-0.404,0.613-0.68,0.613-1.504v-9.014h-0.381c-1.227,0-1.713,0.105-2.012,0.17l-0.57-0.699
		h2.963v-3.195c0-0.994-0.064-1.48-0.381-2.053l0.211-0.232l1.629,1.057v0.15c-0.506,0.232-0.676,0.402-0.676,1.123v3.15H279.055z
		 M278.526,255.55c0.613,1.059,2.496,4.316,2.496,4.74c0,0.23-0.529,1.354-0.719,1.354c-0.086,0-0.086-0.064-0.17-0.508
		c-0.318-1.631-1.1-3.533-1.924-5.373L278.526,255.55z M278.547,249.181c0.422,0.297,1.207,0.867,1.65,1.27
		c0.105,0.084,0.125,0.168,0.125,0.297c0,0.209-0.189,1.119-0.4,1.119c-0.043,0-0.064-0.041-0.234-0.4
		c-0.295-0.656-0.971-1.523-1.373-2.031L278.547,249.181z M284.047,254.808v6.898c0,0.127,0.148,3.746,0.148,3.852
		c0,1.037-0.762,1.82-0.869,1.82c-0.125,0-0.381-0.594-0.465-0.678c-0.529-0.635-1.5-1.186-2.559-1.777l0.146-0.359
		c0.467,0.191,2.412,0.951,2.582,0.951c0.232,0,0.232-0.189,0.232-0.508v-10.199h-0.443c-1.229,0-1.713,0.107-2.01,0.172
		l-0.572-0.699h4.592l0.529-0.699c0.084-0.104,0.125-0.168,0.211-0.168c0.084,0,0.189,0.084,0.213,0.105l1.057,0.951
		c0.062,0.064,0.127,0.105,0.127,0.211c0,0.127-0.189,0.127-0.254,0.127H284.047z M280.917,250.091h3.258l0.508-0.656
		c0.084-0.127,0.127-0.17,0.191-0.17c0.084,0,0.127,0.023,0.232,0.105l1.014,0.912c0.064,0.062,0.129,0.105,0.129,0.189
		c0,0.146-0.17,0.146-0.234,0.146h-2.518c-1.225,0-1.713,0.107-2.01,0.17L280.917,250.091z"/>
	<path fill="#FFFFFF" stroke="#000000" stroke-width="0.25" stroke-miterlimit="10" d="M301.833,262.554l0.445,0.127l-0.805,2.92
		h-9.182c0.678-1.545,1.164-2.645,4.951-6.072c2.666-2.412,3.914-3.555,3.914-5.926c0-2.031-1.332-3.471-3.406-3.471
		c-2.285,0-4.061,1.396-4.061,3.301c0,0.615,0.168,0.699,0.527,0.932c0.4,0.254,0.4,0.615,0.4,0.699
		c0,0.443-0.293,0.846-0.822,0.846c-0.955,0-1.186-1.143-1.186-1.777c0-2.285,1.904-4.506,5.098-4.506
		c2.518,0,4.508,1.521,4.508,4.168c0,2.285-1.25,3.512-3.238,5.205c-3.617,3.088-4.02,3.428-5.543,5.627h6.24
		c1.209,0,1.566-0.422,1.844-1.186L301.833,262.554z"/>
	<path fill="#FFFFFF" stroke="#000000" stroke-width="0.25" stroke-miterlimit="10" d="M311.155,249.626
		c3.533,0,5.078,4.168,5.078,8.188s-1.521,8.189-5.078,8.189c-3.322,0-5.057-3.789-5.057-8.189
		C306.098,253.478,307.792,249.626,311.155,249.626z M311.155,265.496c0.887,0,3.979-0.572,3.979-7.682
		c0-7.301-3.26-7.682-3.979-7.682c-0.805,0-3.957,0.486-3.957,7.682C307.198,265.115,310.434,265.496,311.155,265.496z"/>
	<path fill="#FFFFFF" stroke="#000000" stroke-width="0.25" stroke-miterlimit="10" d="M320.659,265.601v-0.51h1.779
		c0.676,0,1.119-0.316,1.119-1.225v-12.633c0-0.297-0.105-0.316-0.189-0.316c-0.064,0-1.059,0.297-1.27,0.336
		c-0.637,0.129-1.016,0.191-1.375,0.234l-0.148-0.486c0.467-0.064,1.818-0.383,2.645-0.805c0.168-0.084,0.887-0.57,1.057-0.57
		c0.234,0,0.234,0.295,0.234,0.422v13.754c0,0.359,0,1.289,1.102,1.289h1.818v0.51H320.659z"/>
	<path fill="#FFFFFF" stroke="#000000" stroke-width="0.25" stroke-miterlimit="10" d="M340.295,250.07l-0.254,0.973h-7.172
		l-0.211,5.65c0.484-0.402,1.564-1.248,3.594-1.248c3.07,0,4.848,2.072,4.848,5.014s-1.801,5.586-5.207,5.586
		c-2.305,0-4.844-1.418-4.844-3.936c0-0.867,0.383-1.418,1.016-1.418c0.445,0,0.91,0.273,0.91,0.824c0,0.318-0.17,0.572-0.295,0.678
		c-0.488,0.404-0.658,0.529-0.658,0.953c0,0.973,1.715,2.391,3.852,2.391c1.945,0,4.168-1.439,4.168-4.93
		c0-2.35-1.121-4.654-4.021-4.654c-1.205,0-2.561,0.486-3.426,1.564l-0.486-0.146l0.316-7.301H340.295z"/>
</g>
</svg>
